<svg width="80px" height="32px" viewBox="0 0 80 32" version="1.1" xmlns="http://www.w3.org/2000/svg" xmlns:xlink="http://www.w3.org/1999/xlink">
    <g id="Page-1" stroke="none" stroke-width="1" fill-rule="evenodd">
        <g id="Artboard">
            <path d="M56.3555556,5.79555556 L53.0962963,24.1659259 L58.0148148,24.1659259 L61.8074074,2.83259259 L56.3555556,5.79555556 Z M17.7185185,10.5955556 L15.3481481,24.2251852 L20.2666667,24.2251852 L23.1703704,7.69185185 L17.7185185,10.5955556 Z M69.9851852,26.477037 C69.5111111,27.2474074 69.0962963,27.9585185 68.6814815,28.6103704 C68.3030185,29.2215769 67.821879,29.7628587 67.2592593,30.2103704 C66.7347917,30.6402648 66.1306646,30.9624659 65.4814815,31.1585185 C64.7171675,31.410303 63.915661,31.530529 63.1111111,31.5140741 C62.2678008,31.5294956 61.4274821,31.40945 60.6222222,31.1585185 L61.3333333,27.1288889 C61.7858086,27.3121253 62.2675512,27.4124883 62.7555556,27.4251852 C63.3555666,27.4587269 63.9467192,27.2687136 64.4148148,26.8918519 C64.864057,26.4588474 65.2438297,25.9591465 65.5407407,25.4103704 L66.2518519,24.1659259 L62.8148148,8.99555556 L68.1481481,8.99555556 L69.6888889,18.9511111 L69.7481481,18.9511111 L74.7851852,8.99555556 L80,8.99555556 L69.9851852,26.477037 Z M40.7111111,17.8962963 C40.6855548,17.9938119 40.6657674,18.0927488 40.6518519,18.1925926 C40.6510381,18.5872799 40.7531636,18.9753571 40.9481481,19.3185185 C41.1404464,19.6486139 41.4035523,19.9319587 41.7185185,20.1481481 C42.0349504,20.3952791 42.3976213,20.5766146 42.7851852,20.6814815 C43.1896658,20.7985494 43.6085493,20.8583899 44.0296296,20.8592593 C44.7437212,20.8827259 45.4535679,20.7407565 46.1037037,20.4444444 C46.7096163,20.1581599 47.2532762,19.7554488 47.7037037,19.2592593 L50.7851852,21.6888889 C49.890897,22.685289 48.7742639,23.456781 47.5259259,23.9407407 C46.2989235,24.4207249 44.9915774,24.6620811 43.6740741,24.6518519 C42.6708936,24.6679204 41.6713101,24.5279787 40.7111111,24.237037 C39.8393963,23.9709163 39.0322985,23.5270125 38.3407407,22.9333333 C37.6793274,22.327959 37.1367044,21.6044617 36.7407407,20.8 C36.32289,19.8904343 36.1201193,18.8968578 36.1481481,17.8962963 C36.1434111,16.6369585 36.384981,15.3888474 36.8592593,14.2222222 C37.291856,13.1202379 37.9360786,12.1136402 38.7555556,11.2592593 C39.5854582,10.4228219 40.5721903,9.75828802 41.6592593,9.3037037 C42.8242248,8.82385986 44.0734587,8.58207265 45.3333333,8.59259259 C46.2591662,8.57157175 47.1815876,8.71194023 48.0592593,9.00740741 C48.8451936,9.27809974 49.5701052,9.7009648 50.1925926,10.2518519 C50.8099931,10.7973855 51.2789357,11.490605 51.5555556,12.2666667 C51.8767952,13.1392521 52.0374099,14.0627863 52.0296296,14.9925926 C52.0296296,15.3481481 51.9703704,15.8222222 51.9111111,16.3555556 C51.8410631,16.8938091 51.7421552,17.4279117 51.6148148,17.9555556 L40.7111111,17.9555556 L40.7111111,17.8962963 L40.7111111,17.8962963 Z M47.6444444,14.9333333 C47.6444444,14.8148148 47.7037037,14.7555556 47.7037037,14.637037 L47.7037037,14.3407407 C47.7214376,13.7101388 47.4614657,13.1035376 46.9925926,12.6814815 C46.4161077,12.1957898 45.6692035,11.9610484 44.9185185,12.0296296 C44.410051,12.0304058 43.9066902,12.131078 43.437037,12.3259259 C43.0212393,12.4918 42.63956,12.7328606 42.3111111,13.037037 C42.005737,13.3103021 41.7457071,13.6303389 41.5407407,13.9851852 C41.3625264,14.3031164 41.223252,14.6413544 41.1259259,14.9925926 L47.6444444,14.9925926 L47.6444444,14.9333333 L47.6444444,14.9333333 Z M37.0962963,4.74074074 C36.6831254,4.57129486 36.2389655,4.49053853 35.7925926,4.5037037 C35.4026142,4.47748798 35.0129737,4.55951756 34.6666667,4.74074074 C34.3706454,4.90689253 34.109153,5.12815535 33.8962963,5.39259259 C33.703322,5.68992484 33.5443035,6.00796198 33.4222222,6.34074074 C33.3151037,6.68946244 33.2358423,7.04613874 33.1851852,7.40740741 L32.8888889,9.00740741 L36.3259259,9.00740741 L35.6740741,12.6814815 L32.2962963,12.6814815 L30.2222222,24.237037 L25.4222222,24.237037 L27.4962963,12.6814815 L24.7111111,12.6814815 L25.362963,9.00740741 L28.0296296,9.00740741 L28.3259259,7.46666667 C28.4999827,6.60095361 28.7376647,5.7492598 29.037037,4.91851852 C29.6174756,3.25251738 30.8616411,1.90109623 32.4740741,1.18518519 C33.4620864,0.75068991 34.5364063,0.547988036 35.6148148,0.592592593 C36.0305106,0.582760502 36.4463787,0.602563742 36.8592593,0.651851852 C37.2227625,0.689487379 37.580695,0.769027929 37.9259259,0.888888889 L37.0962963,4.74074074 Z M0,24.1659259 L3.79259259,2.5362963 L8.88888889,2.5362963 L5.80740741,19.7214815 L13.2740741,19.7214815 L12.5037037,24.1659259 L0,24.1659259 L0,24.1659259 Z" id="Logo"></path>
        </g>
    </g>
</svg>
